<svg id="Layer_1" data-name="Layer 1" xmlns="http://www.w3.org/2000/svg" viewBox="0 0 460.32 460.32"><defs><style>.cls-1{fill:#de2127;}.cls-1,.cls-3,.cls-4{fill-rule:evenodd;}.cls-2,.cls-3{fill:#009b49;}.cls-4{fill:#fcda00;}</style></defs><path class="cls-1" d="M376.53,228.68c0,81.69-67.29,147.9-150.27,147.9S76,310.37,76,228.68,143.25,80.79,226.26,80.79,376.53,147,376.53,228.68Z"/><path class="cls-2" d="M450,230.54h0c0,59.43-24.62,113.24-64.43,152.17a221.73,221.73,0,0,1-155.48,63h0a221.76,221.76,0,0,1-155.5-63C34.79,343.79,10.17,290,10.16,230.56h0v0h0c0-59.43,24.63-113.24,64.45-152.18a221.76,221.76,0,0,1,155.47-63h0a221.71,221.71,0,0,1,155.5,63C425.41,117.29,450,171.08,450,230.52h0v0Zm-5.71,0h0v0h0c0-57.82-24-110.17-62.73-148.07A216,216,0,0,0,230.11,21.06v0h0v0A216,216,0,0,0,78.59,82.44c-38.75,37.9-62.72,90.26-62.72,148.09h0v0h0c0,57.81,24,110.16,62.72,148.07A216,216,0,0,0,230.09,440h0A216,216,0,0,0,381.6,378.63c38.75-37.91,62.73-90.26,62.73-148.08Z"/><polygon class="cls-1" points="68.13 311.63 57.03 304.88 46.05 310.94 49.1 299.73 39.35 291.14 51.87 291 55.37 278.44 61.19 291.8 72.49 292.59 64.39 299.24 68.13 311.63 68.13 311.63"/><polygon class="cls-1" points="102.23 354.45 91.52 352.47 84.78 365.15 80.82 351.67 68.92 350.48 80.27 343.61 78.33 330.7 89.1 340.53 99.45 333.43 94.69 344.14 102.23 354.45 102.23 354.45"/><polygon class="cls-1" points="408.73 305.68 399.28 295.46 383.75 302.11 390.89 289.02 380.57 277.92 395.94 279.15 402.78 266.82 404.76 280.3 420.62 283.08 407.54 291.01 408.73 305.68 408.73 305.68"/><polygon class="cls-1" points="378.49 359.01 368.08 347.71 354.4 350.98 362.59 340.02 354.99 328.67 368.74 332.63 377 321.24 379.38 336.11 392.46 337 377.3 344.43 378.49 359.01 378.49 359.01"/><path class="cls-3" d="M194.11,416.61l-5.74-3.46a2.23,2.23,0,1,0-2.3,3.83l5.74,3.45a2.23,2.23,0,1,0,2.3-3.82Z"/><path class="cls-3" d="M327.34,370c5.05-4.46.89-7.14.89-7.14-66,45.2-135.9,25.28-135.9,25.28-18.73.29-59.18-25.58-59.18-25.58-7.13,4.17,5.65,11.6,5.65,11.6,4.17.89,2.38,9.22,2.38,9.22-8.32,5.95-10.6-1.78-10.6-1.78.39-2.58-1.59-1.79-1.59-1.79-4.16,8.92,4.16,12.79,4.16,12.79.6,1.19,16.36-1.49,16.36-1.49,11.3-4.46,9.22,10.41,9.22,10.41-3.87,6.54,3,7.43,3,7.43.6-.79,7.14-15.85,7.14-15.85,1.39-7.94,8.13-3.77,8.13-3.77,5.94,2.38,22.2,5.75,22.2,5.75,9.12.2,6,3.17,6,3.17-.3.89-27.36.59-27.36.59-5.65,5.06.89,7.14.89,7.14,11.6-.89,23.79,9.22,23.79,9.22a8.08,8.08,0,0,0,7.14,3.86c.89-3,3-13.38,3-13.38-.3-9.51,5.65-8.62,5.65-8.62,5.06,2.08,27,.8,27,.8,7.14-2,2.57,2.57,2.57,2.57l-16.25,4.16c-9.52,2-7.54,4-7.54,4-1.78,6.34,5.75,5.35,5.75,5.35,18.64-4.36,25.58,4.76,25.58,4.76,1.78,3.37,6.34-.79,6.34-.79-.79-.79-1.49-14.58-1.49-14.58l5.65-.29c9.52-1.49,3.87,3.56,3.87,3.56-3.87,0-3.87,3.87-3.87,3.87,2.08,4.46,10.11-1.78,10.11-1.78,8-10.11-14.87-12.79-14.87-12.79l13.09-3.27a5.83,5.83,0,0,1,6.84-.3L286,407.48c1.49,7.73,7.73,4.16,7.73,4.16l-4.46-13.38c-3-10.41.6-9.82.6-9.82l20.52-9.21c9.51-8,9.81-2.68,9.81-2.68L304.14,389c-10.41,7.14-.89,10.71-.89,10.71,16.36-15.17,34.2-8.92,34.2-8.92C339.53,388.44,327.34,370,327.34,370ZM162.89,390.83c-2.38.59-4.76-3-4.76-3,.3-5.05-12.49-4.46-12.49-4.46-1.19-4.46.6-5.35.6-5.35,4.76-3.57,18.14,8,18.14,8Zm42.82,20.51s-4.76,0-9.22-5.35c0,0-1.78-4.46,6.55-1.78C203,404.21,209.58,405.1,205.71,411.34Zm46.69.3-2.68-1.19c-8-.59,0-5.05,0-5.05C254.48,404.21,252.4,411.64,252.4,411.64ZM324.07,387s-6.54,1.19-1.79-3.87c0,0,1.49-2.38,5.06-1.48C327.34,381.61,330.31,386.66,324.07,387Z"/><path class="cls-3" d="M327,398.85s4.16-5.94-7.43-2.38c0,0-8.33,6.55,1.78,5.95,0,0,3.57-3.27,5.65-3.57Z"/><path class="cls-3" d="M51.08,182c-5.16-.4-4.76-4.76-4.76-4.76C43.54,175.63,42,184,42,184c4.36,1.19,1.19,5.15,1.19,5.15-5.55,4-6.35,18.24-6.35,18.24,2.78,17,10.71,12.29,10.71,12.29,4.76-.79.79-11.89.79-11.89,2-18.24,5.55,1.59,5.55,1.59,1.19,7.93,6.74,1.19,6.74,1.19-.79-7.53-5.94-15.47-5.94-15.47-3.57-6.34-9.12,3.57-9.12,3.57,1.19,11.11-2.78,7.14-2.78,7.14-4.36-11.5,4.76-17,4.76-17,4.36-3.17,15.46.79,15.46.79,6.35.79,3.17-4,3.17-4Z"/><path class="cls-3" d="M69.32,142.71c-7.14-.39-6.35-7.13-6.35-7.13C59.8,133.2,57,142.71,57,142.71c5.54,2,.39,5.16.39,5.16-6.34,2-8.72,10.31-8.72,10.31-3.57,20.62,12.69,18.24,12.69,18.24a13.23,13.23,0,0,0,5.15-16.66c-1.59-5.15-6,1.19-6,1.19,3.17,10.31-2.77,11.11-2.77,11.11C48.3,164.13,59,151,59,151c5.15-7.53,17.84,1.59,17.84,1.59,4.76,2.37,4.36-3.57,4.36-3.57Z"/><path class="cls-3" d="M251.81,34.57c-11.6-14.28-25.88-9.22-25.88-9.22-13.38,1.19-6.54,6.54-6.54,6.54,8.33-2.68,19.93-2.68,19.93-2.68,11.29,3,4.16,7.14,4.16,7.14-5.95-2.08-39,.89-39,.89-39.55,4.76-78.8,28-78.8,28C114.12,70,88.25,96.42,88.25,96.42l2.68,4.46c-1.2,2.38-7.74,3.27-7.74,3.27-9.81,2.68-10.4,16.66-10.4,16.66-2.68,9.22,5.35,3.56,5.35,3.56,3.27-6.54,4.76-.89,4.76-.89,1.48,4.17,5.65.3,5.65.3,1.48.59,3-9.81,3-9.81.6-14.28,5.55-8.53,5.55-8.53,7.14,3.18,4.37,8.33,4.37,8.33-6-.4-7.54,9.91-7.54,9.91,1.19,5.95-5.55,10.71-5.55,10.71-7.93-.4-6.35,2-6.35,2,15.87,2.38,17.85-11.5,17.85-11.5-1.49-7.23,4.16-9.71,4.16-9.71,4.76.59,5.35-2.38,5.35-2.38,3.57-.6-7.43-10.71-7.43-10.71-11.3-8-4.76-9.81-4.76-9.81,3.87-2.08,7.44-6.55,7.44-6.55,4.75-6.83,5.35,0,5.35,0,.89,6.55,10.7,5.06,10.7,5.06,3.28-.3,6.25-6.84,6.25-6.84-.89-3.86,3-2.38,3-2.38,1.78,7.73-7.13,11.9-7.13,11.9-4.76,5.65-17.85.29-17.85.29l-.29,2.38c13.38,7.74,22,0,22,0,7.14-1.18,9.81-14.27,9.81-14.27-3-5-12.48-3.27-12.48-3.27.89,1.49-6.25,9.81-6.25,9.81C110.85,82.74,123,72.33,123,72.33c.6,2.68,10.11,1.79,10.11,1.79,7.73-4.46,5.36,0,5.36,0,1.48.6,2.08,7.73,2.08,7.73,3,5.35,4.76,2.08,4.76,2.08-2.38-3,1.48-16.35,1.48-16.35l-5.35-2.68-6.54,5.35c-9.82.9-4.46-2.38-4.46-2.38,1.48-2.08,13.08-8.32,13.08-8.32,6.84-6.25,10.11,7.73,10.11,7.73,2.08,4.46,6.84,9.81,6.84,9.81l3-3L159,64.31c-8-13.39.3-11.3.3-11.3,2.09-3,17.25-5.95,17.25-5.95,6.54-1.79-1.78,4.75-1.78,4.75,0,5.66,5.35,4.47,5.35,4.47,1.78-3.57,8.33-5.65,8.33-5.65,12.48-1.19.89,8.92.89,8.92-13.09,8.62-22.9-1.49-22.9-1.49-3.87-3.57-4.46-.3-4.46-.3,1.78,3.27,15.46,9.52,15.46,9.52,6.55,1.78,15.47-2.38,15.47-2.38,13.68-12.19,0-18.14,0-18.14-11-2.08.29-3.87.29-3.87,10.71-3.86,35.39-3.27,35.39-3.27,3,9.52-3.87,6.84-3.87,6.84-3.86-5.05-14.56-1.78-14.56-1.78-10.41,5.06.59,6.54.59,6.54,3-4.16,5.65-3.57,5.65-3.57,11-2.38,2.68,3.87,2.68,3.87-3.87,5.35,7.13,1.78,7.13,1.78.3-3.86,5.65-3.27,5.65-3.27,6.55-.59,2.08,9.81,2.08,9.81C231.29,57.47,215.23,61,215.23,61c-7.73-8.32-5.65-.29-5.65-.29,4.76,7.13,13.08,4.46,13.08,4.46,8.92-6.25,10.71-1.49,10.71-1.49,3,2.38,4.76,1.49,4.76,1.49l1.48-9.81c2.09-3.28-5.05-9.52-5.05-9.52.3-9.22,7.73-5.95,7.73-5.95,7.73-3.27,3.57,15.47,3.57,15.47-1.49,9.21,4.16,7.43,4.16,7.43,1.49-2.38,2.08-16.36,2.08-16.36-2.38-6.54,4.17-5.35,4.17-5.35l.29-4.16C254.48,38.73,251.81,34.57,251.81,34.57Zm-168.62,83s-7.43,2.38-3-6.54c0,0,.6-5.35,6.84-4.16C87.06,106.83,89.44,114.86,83.19,117.53Z"/><path class="cls-3" d="M315.74,58.06s3.57-2.38-10.71-8.32c0,0-25-8.93-34.79-10.41,0,0-7.73,2.38,4.16,5.65,0,0,14.87,2.38,18.44,6.54h-25s-6.54,5.65,3,7.73c0,0,14.86.3,17.24,10.71,0,0,4.46,6.84,6.85-3.57,0,0,4.75-11.9,6.54-13.09,0,0,9.51-.59,3,11l-5.65,9.22s1.19,5.35,4.46,3.27c0,0,5.65-10.41,6.54-14.58A9.26,9.26,0,0,1,315.74,58.06Zm-27.36,5.65c-8.62-4.76-4.16-6-4.16-6h6.24C291.65,60.14,288.38,63.71,288.38,63.71Z"/><path class="cls-3" d="M310.39,78.88c1.78-.6,14.57,13.38,14.57,13.38,1.48-2.68-7.73-14.57-7.73-14.57C313.06,72,310.39,78.88,310.39,78.88Z"/><path class="cls-3" d="M337.45,70.85c2.38-10.71-14.87-10.11-14.87-10.11-10.71,4.46-4.76,12.49-4.76,12.49C333,82.74,337.45,70.85,337.45,70.85Zm-7.14-.3s-9.81,3.87-10.7-2.38c0,0,3.86-4.46,8.92-2.68C328.53,65.49,337.74,67.58,330.31,70.55Z"/><path class="cls-3" d="M423.39,207.94c-2.08,1.19-5.95-2.68-5.95-2.68,2.68-.3,3.87-3.27,3.87-3.27,1.78-3.87-.6-9.22-.6-9.22-2.67.3-5.35-5.05-5.35-5.05,2.68-6.25,2.68-8.92,2.68-8.92,0-12.2-16.06-41.64-16.06-41.64-1.79-10.11-29.14-40.74-29.14-40.74-2.08-4.16-27.66-24.68-27.66-24.68-6.84.89,5.95,10.41,5.95,10.41,3.27.59,16.95,15.46,16.95,15.46,2.38,7.14-3.27,4.46-3.27,4.46,2.08-8.92-11-9.22-11-9.22-2.37-11.59-9.81-10.7-9.81-10.7-15.76-3.57-11.6,9.81-11.6,9.81,5.65,8.33,12.2,7.44,12.2,7.44l.59-4.46c-3.87-.6-8.62-7.14-8.62-7.14,5.65-3,10.11,1.78,10.11,1.78,6.24,0,4.46,9.52,4.46,9.52l4.16,1.19c12.49-1.19,4.17,9.22,4.17,9.22-9.52,5.94-1.79,8.32-1.79,8.32l8.92-7.13c8.92-12.79,11.3-.9,11.3-.9,0,2.68-11,8.33-11,8.33-6.25,5.35-3.57,9.52-3.57,9.52l9.81-7.44c6.25-6.84,10.41-4.46,10.41-4.46,8.92,6.84,2.08,8,2.08,8-7.13-.89-12.49,3.87-12.49,3.87-6.84,9.22,3.87,16,3.87,16,2.08-.29,2.38-4.16,2.38-4.16-3.27,0-5.35-6.54-5.35-6.54,4.75-9.52,18.14-1.78,18.14-1.78,9.22,2.67,2.67,7.43,2.67,7.43-.89,0-10.4,5.95-10.4,5.95-1.79,6.24,7.13,9.51,7.13,9.51,8.33,3.87,8,6.84,8,6.84-11.6.6-11.6,4.17-11.6,4.17,4.46-1.79,9.22.59,9.22.59.6,1.49,6.25,2.08,6.25,2.08l2.38-6.24L396,150.84c-6.84-3.86-2.08-5.65-2.08-5.65,4.46-6.25,7.14-1.19,7.14-1.19,1.48-.3,12.49,31.52,12.49,31.52,1.48,16.66-7.73,5.36-7.73,5.36-1.19-5.65-4.17-4.46-4.17-4.46-4.16.89.6,9.81.6,9.81,3.57,0,3.27,5.06,3.27,5.06-3.87,3,0,12.78,0,12.78L410.6,202c-3.57-8.33,0-9.51,0-9.51,4.76-3,6.25,5.64,6.25,5.64,2.68,12.79-15.17,11.9-15.17,11.9-7.43.89-1.78,4.16-1.78,4.16,1.78.9,18.43-1.78,18.43-1.78,3.87,6.84,5.95,4.46,5.95,4.46C426.36,211.21,423.39,207.94,423.39,207.94Z"/><path class="cls-4" d="M176.7,132.26a12.72,12.72,0,0,0-.29,2.33l2,1.75c.1.29.19.58.29.87l1.17.29v.29a3.15,3.15,0,0,0,1.45.88v-.58h1.46a15.44,15.44,0,0,1,.58,2H184l.29.59.88.29v.58l.57.29v.58h.3v.87l.87.29.29.59a6.23,6.23,0,0,0,2.62,1.74c.1-.58.19-1.16.29-1.74.79.21.89.48,1.46.87v.29H193c.15.07.38.77.88.87.27-.18,0-.26.58-.29a2,2,0,0,1,.29-1.16h-.29c-.62-.87-.26-.18-1.17-.58v-.3h-.87l-1.46-2v-.58l-.58-.29v-1.46a3.75,3.75,0,0,1,2.33-.58c.33.5.19.39.87.58v.58c.89.52,1.12,1.19,2.33,1.46.1.38.2.77.29,1.16h.29v2.62h.3v.58l.58.29v.59h.29c.09.38.19.77.29,1.16h.29v.87l1.75,2.33h.58c.1.2.19.39.29.58h.58v.3l.87.58c.74,1.05,0,1.52,1.75,1.74,1.6-1.77,2.25.56,3.2.29.1-.19.2-.38.29-.58l.58-.29.3.87h.29v.58L209,155a5.59,5.59,0,0,0,.87-1.16h.29c.1-.58.2-1.16.29-1.74h.29l.59-.88c-.85-.47-1.13-1-1.17-2.33.73-.65.28-1.11,1.46-1.45v-.29l1.45.29L214,150l2.32,1.74v2h.3v.58h.29c.09.29.19.58.29.87l1.45.3v.29a14,14,0,0,1,2.62,1.16v.58h.29v.88c-.92.56-1.15,1.41-1.74,2.33l-.59.29V162h-.29v2h-.29v.58l-.87.58c-.1.39-.2.77-.29,1.16h-.29v.29h.29v1.17h.29c.1,1.26.19,2.52.29,3.78h-.29v2.33h-.29c-.1,1.26-.2,2.52-.29,3.78h.29v.3c.72-.17,1.78-1.08,2.91-.59l.29.59h.58c.1.19.2.38.29.58h.58v.29h.59v.29l3.78.87v.29h.87v.29h.88v.3H232v.29h1.16v.29h1.17v.29h1.16V182h.58v.29l1.75.29v.29a7.9,7.9,0,0,0,3.49,0v-.29h1.17v-.29h1.16V182h4.66c.89.28,3.34,1.44,4.95.87v-.29h.58v-.29a7.52,7.52,0,0,1,4.07-.58V182h1.75v.29h3.2v.29h.58v.29h.87v.29h.58v.3h1.17v.29l2.91.29v-.29h1.75v-.29c1-.3,3.07.38,3.49.29v-.29l1.45-.3v-.29l1.17-.29v-.29a7.11,7.11,0,0,1,3.49,0v.29h1.75c2.2.67,6.11,1.61,6.69,3.78a3.24,3.24,0,0,1,1.45.88v.29l1.46.29v.29h.58c.1.2.2.39.29.58h.59V189c.8.82.38,1.35,1.74,1.75a22,22,0,0,1,.58,2.33,6.18,6.18,0,0,1-2.32.29v-.29H292a7.1,7.1,0,0,0-4.66-.58c.1,1.16.2,2.33.29,3.49h-.29a14,14,0,0,0-.58,4.36H287v1.75a12.38,12.38,0,0,1,.88,2.62c-.5.33-.4.18-.59.87h-.87v-.29c-.71-.6-.28-.82-1.45-1.16v.29h-.29c-.53.95.34,2.47-.3,3.2v.29c-.44.25-3.61,0-4.36.29v.87c-1-.1-.88-.35-1.75-.58.1.78.2,1.56.29,2.33l-.87.29c-.33.33,0,.12-.58.29V212h-.29c-.09.48.27.5.29.58a10.28,10.28,0,0,1-.29,3.78c-.53.28-.46.4-1.17.58v-.29c-.6-.55-.57-.89-.58-2a5.87,5.87,0,0,1,.29-1.17h-.58c-.44.48-1.45.57-2,.87V214c-.55-.36-.48-.29-.58-1.16h-.58c.09,1.07.19,2.13.29,3.2a2.82,2.82,0,0,0-1.16,1.16l-.88-.29c-.25-1-.6-.75-.87-1.74-.58-.17-.25,0-.58-.29-.72.19-.5.11-.88.58h-.29v1.16l-.87,2.33-4.07-1.16v.29c-2.28.59-1.85,3.59-3.5,4.65l-3.2.59v.58c-.94,1,.22,3.72-.29,5.24H255v.58h-.29c-.59,1.75.82,3.94,1.16,5v1.45h.29v1.17h.3v.87h.29v.87l.87.58c.19.59.39,1.17.58,1.75l.58.29v.58h.29l1.17,8.73c.62.36.63.66,1.45.88-.19-.88-.38-1.75-.58-2.62h-.29v-.58h-.29c-.62-1.73.36-3.84.58-5a3.57,3.57,0,0,1,1.46-.29,3.72,3.72,0,0,0,.87,1.16c.1,1.55.19,3.11.29,4.66h.58l.58,1.74.88.59v.87h.29v.87h.29c.1.29.2.58.29.88l1.17-.3v-.29c.31-.06,1.57.55,2.62.59a3.77,3.77,0,0,1,1.45-1.46v-1.16h.58c.55-1,1.28-1.25,1.46-2.62-.92-.63-.41-.85-.88-1.75h-.29c-.09-.39-.19-.78-.29-1.16h-.29v-.88h-.29c.1-1.36.19-2.71.29-4.07a2.77,2.77,0,0,0,.58-.58c1-.47,2.38.23,3.21-.29.67-.78,1.35-1.56,2-2.33-.3-1.46-.39-6,.58-7v-.29h1.17c.24.33,0,0,.29.29.11,1.13.45,1.21.58,2.33h.58V233l.88-.29,2-2.62c.33.25,0,0,.29.29a2.81,2.81,0,0,1,1.17,1.17h.29c.1-.3.19-.59.29-.88h.29v-.58c.28-.32.6-.23,1.16-.29.18.35.5.43.59.58v.58h.29v.87h.29v.88H289v1.16h.29V235h.29c-.09,1.16-.19,2.33-.29,3.49h.29v1.75h.29v2h.29v2h.3v2h.29c.06.4-.17-.11-.29.29.09,1.36.19,2.72.29,4.07h-.29v1.75l.87,2.62.58.29v.87h.29c.34.91,0,2,.58,2.62.34.33,0,.12.59.29.09,1,.19,1.94.29,2.91H294v1.46l.58.29v.58h.29v2h.29v1.45h.29c-.09,1.17-.19,2.33-.29,3.5h.29V272h.29v1.16h.3V274h.29v1.16h.29c.09,1.75.19,3.49.29,5.24h.29c.55,1.84.29,4.71.29,7v3.2c.5,1.77.29,4.74.29,7V304h.29v.87h.29v.88h.29v.58h.3v.58h.29v.58h.29a4.65,4.65,0,0,1-.58,2.91c-.24,1-.52,1.14-1.75,1.17-.4-.51-1.21-.82-1.46-1.46v-1.45h.3v-.29h-.3v-.59h-.29v-.87h-.29c-.53-.49-2.2-.32-3.2-.29-.23-1.64-.55-3.31-2.33-3.49l-1.74,1.45v.58l-.59.3v.29c-.74.69-1.09.16-1.45,1.45-1.1,1.08.25,2.9-.29,4.95h-.29c-.28,1,.83,4.58,1.16,5.24h.29v.58H287v.87h.29v.59h.29c.2,1.16.39,2.32.59,3.49h.29c.1.58.19,1.16.29,1.74H289c.1.39.2.78.29,1.17h.29c.29,1.26.58,2.52.88,3.78h-1.17a1.64,1.64,0,0,0-1.16-.58L287,325.8h-.29v-.88h-.29c-.1-.38-.19-.77-.29-1.16h-.29v-.87l-.58-.29V322l-.88-.58v-.58l-.58-.29-.87-3.78-1.16-.88-.88-1.16-.58-.29c-.19-.59-.39-1.17-.58-1.75h-.29v-.58h-.29c.09-1.36.19-2.72.29-4.07h-.29v-.59l-.88-.58v-.58l-.58-.29v-3.5l-.87-6.4-1.75-1.45v-.58h-.29a5.89,5.89,0,0,1,.29-2.92c-.1-2.23-.19-4.46-.29-6.69h-.29v-.87l-.58-.29v-.58h-.29c-.1-.39-.2-.78-.29-1.17H273q-.28-3.78-.58-7.56h-.29v-.59h-.29v-.58l-.58-.29V272l-.87-.58-.3-.59-.87-.29c-.1-.68-.19-1.36-.29-2h-.29v-.58l-.58-.29V267l-.88-.58v-.59l-2.91-2.61v-.58c-.54-.76-1.1-.49-1.45-1.75h-.58v1.75c-.34.24,0,0-.29.29l-2.92.58v-.29h-.87v-.29l-1.45-.88v.29c-.55.44-.85,1.39-.59,1.75.61,1,1.56,1.14,1.75,2.62-.62.5-.16.59-1.16.87-1.23,1.13-3.94-1.24-5.24-1.45v.58l-.87.29-.3.58-1.45.29-1.75-2.33-1.16-.29-.29-.58h-.58l-1.46-1.74-.58-.29v-.59c-.2-.09-.39-.19-.58-.29v-1.16h-.29v-1.17h-.3c-.45-1.16.19-1.34-1.16-1.74v-.29h-1.45a4.43,4.43,0,0,0-.3,1.74,16,16,0,0,0-2.32.58l-.3.88-1.74.29a3.52,3.52,0,0,0-.29,1.45c.52.32.57.64.87,1.17h-.29a3.82,3.82,0,0,0-.87,2.32c.48.59,1,1.17,1.45,1.75l.87.58c.41.55-.12.42.59.88a5.37,5.37,0,0,0,0,3.2h.29c.09.49-.28.51-.29.58v2.91h-.29v.87h-.3c-.19.59-.38,1.17-.58,1.75h-.29c-.1.39-.19.78-.29,1.16L233.45,281c-.19,1.36-.38,2.72-.58,4.07a5.17,5.17,0,0,0-1.45.59,5.12,5.12,0,0,0-.59-1.46h-.58c-.51.91-1.18,1.38-1.45,2.62h-.87v-.29c-.52-.46-.27-.55-.59-1.16h-.29v-.88h-.29v.29c-.77,1,.4,1.83,0,3.21-1.14,3.93-1.76,3.56-6.11,3.49.19-.88.39-1.75.58-2.62a5.66,5.66,0,0,1-2.33-.3c.63-1.35,1.14-1.64,1.17-3.78-.33-.24,0,0-.29-.29a18,18,0,0,0-2.33.58v.3l-1.75-.3a2.37,2.37,0,0,1-.29-1.45.48.48,0,0,0,.29-.58h-.29v-.88h-.29v-2.33h-.29v.3a4.28,4.28,0,0,0-2.62,3.2h.87c.6,1,1.13.9,1.17,2.62l.87,2.32h-.29c-.41.63-.69.59-1.75.59v-.3h-.87c-.25.34,0,0-.29.3-.1.58-.2,1.16-.29,1.74a9.35,9.35,0,0,1-2.33-.29c-.29-.8-1-3.3-1.45-3.78v.58h-.3c-.12.19-.18.94-.29,1.16h.29a2.53,2.53,0,0,0,.58,1.17h.3a5.72,5.72,0,0,1,.29,2.62c-.32.17-.46.51-.59.58a8.14,8.14,0,0,1-3.49.58c-.17-.32-.5-.45-.58-.58V292h-.29v-.88c-.16-.29-1.25-.45-.87-1.45l.87-.58a4.67,4.67,0,0,0,.87-2.91c-.52-.28-.46-.4-1.16-.58-.1-.49-.19-1-.29-1.46h.29v-2.62h-.29c-.1-.48-.2-1-.29-1.45h-.59v2.32H202c-.09.59-.19,1.17-.29,1.75H202a2.31,2.31,0,0,1,.59,1.75l-1.75-.29c-.1.38-.19.77-.29,1.16.29,2,1.4,4.62-1.46,4.95a2.09,2.09,0,0,0-.58-.88c.3-.69,1.09-2.47.58-3.78h-.29v-.58l-.87-.58v-4.08h-.29v-1.16h-.29a11.52,11.52,0,0,0-1.46,2.33c.2,1.65.39,3.29.58,5h.3v.57h.29c-.1,1.07-.2,2.14-.29,3.21l-1.75-.59c-.1-.87-.2-1.74-.29-2.62H195c.1-.57.19-1.16.29-1.74-.64-.36-1-.82-1.75-1.16,0,2.46-1,4-1.74,5.82-.59-.17-.25,0-.58-.3-1.07-.27-1.06-.88-1.75-1.45.1-1.65.19-3.3.29-4.95h.29c-.1-1-.19-1.94-.29-2.91.1-1.06.19-2.13.29-3.2h-.29v-.58h-.29c-.19-.87-.39-1.75-.58-2.62h-.29v-.58h-.3c-.09-.58-.19-1.17-.29-1.75h-.29v-.58h-.29v-.87h-.29a6.32,6.32,0,0,1,.29-2.91c.32-1.21-.37-2.22-.58-2.92v-2.61c-.33-1-1-1.6-1.17-2.91h.3v-.59h.29a3.43,3.43,0,0,0,1.16-2.62c-.58-.5-.24-.67-.58-1.16-.58-.48-1.17-1-1.74-1.46v-.58a5.61,5.61,0,0,1-1.17-3.78c.33-.33.12,0,.29-.58L186,249a10.85,10.85,0,0,1,0-2.91c.37-.2.4-.47.58-.59h.58c.1-.19.2-.38.29-.58.94-.48.75.45,1.46-.58a3.55,3.55,0,0,0-2.62-.87c-.42.63-1.05.78-1.46,1.45-1.11-.39-4.53-1.18-4.94-2V242h1.45a3,3,0,0,0,.29-1.16c-.87-.59-.68-1.17-.29-2v-.58h.29v-.58l.58-.29v-.88l.59-.29a3.46,3.46,0,0,0,.58-1.45,4.86,4.86,0,0,1-.87-.88h-1.46v-.29h-.58v-.29l-1.75-.29c-.83-.55-2.09-3.68-2.33-5,.68-.44.86-1.24,1.46-1.74-.29-1.19-1-1.48-1.17-2.91.34-.33.12,0,.29-.59l4.37-.87c.26-.73,0-2.06.29-2.91h.29v-.58h.29c.38-.95.05-1,0-2a2.42,2.42,0,0,1-1.45-2.62h.29v-.29h1.75v-.29c.33-.33.11,0,.29-.58-.29-1-.58-1.94-.88-2.91l-1.74-1.46-4.08-.29v.29h-2v-.29h-.87l-2.62-2.33V205l-.87-.58v-.29h-.87v-.29h-.58v-.29h-.88v-.3l-1.74-.58v-.29h-.59L164.19,201l-.58-.29v-.59h-.29v-.58H163v-.87l-.59-.29v-.58h-.29a8.09,8.09,0,0,1,0-3.79h.29c.73-2.53,3.69-1,3.79-4.36-1.57-1,0-3.09,1.45-3.21.29,1,.58,2,.88,2.92h.58a5.91,5.91,0,0,1,1.74-2.33l.3-.59h.58v-.29c1.39-.56,1.8.54,2.33-1.16.58-.55,0-.21.28-.87h.3v-.58H175c.51-1.51-.9-3-1.17-4.08,1.49-.78,3.81-.6,6.12-.58v.29h.58l.29.58h.58V180h3.79a8.46,8.46,0,0,0,4.65.29v-2l1.75-.29v-.88h-.29v-.29c-.51-.38-1.46,0-2-.29-.1-.19-.2-.39-.29-.58h-.59l-.87-1.16c-.33-.24-1.24-.24-1.45-.59v-.58h-.3v-.87c.53-.28.46-.41,1.17-.58a13.92,13.92,0,0,0-.58-2.33c-.32-.17-.61-.79-1.16-.59v.3l-1.17.29v.29a6.22,6.22,0,0,1-1.75.87v-.29l-.87-.58v-.29h-.58l-.29-.59h-.58l-.3-.58h-1.16v-.29l-1.75-.58v-.29h-.58c-.38-.49-.77-1-1.16-1.46-.29-.19-.59-.38-.87-.58v-.58h-.3c-.09-.49-.19-1-.29-1.46h-.29c-.49-.93-.62-1.43-1.74-1.74-.17-.92-.29-1.22-1.17-1.46-.72-.56-1.85.43-3.2,0v-.29c-.51-.18-.76-.13-1.16-.29a7.89,7.89,0,0,1-.3-2.62c-.7-.75-.17-2.95,0-3.78a2.66,2.66,0,0,0,1.75-1.16c-.55-.37-.48-.3-.58-1.17a4,4,0,0,0,1.45-1.45V148h.3v-.58c.66-1,1.37-.11,2.32-.58l1.75-2v-.88h.29v-1.16c.52-.9,3-.6,4.37-.58v-.29h1.16v-1.16h-1.16v-2.33c-1.06,0-2.5-.72-2.92-.59v.3a3.06,3.06,0,0,1-1.45.29,5,5,0,0,1,.29-2.33l.58-.29V134h.3C174.71,132.76,174.8,132.26,176.7,132.26Z"/></svg>