<svg id="Layer_1" data-name="Layer 1" xmlns="http://www.w3.org/2000/svg" viewBox="0 0 35.6 34.8"><defs><style>.cls-1{fill:#fff;}.cls-2{fill:#de2227;}.cls-2,.cls-4,.cls-5{fill-rule:evenodd;}.cls-3,.cls-4{fill:#009c49;}.cls-5{fill:#fcdb00;}</style></defs><circle class="cls-1" cx="17.8" cy="17.4" r="17.4"/><path class="cls-2" d="M29.7,17.2a12.08,12.08,0,0,1-12.2,12,12.14,12.14,0,0,1-12.2-12,12.08,12.08,0,0,1,12.2-12,12.21,12.21,0,0,1,12.2,12Z"/><path class="cls-3" d="M35.6,17.4h0a17.14,17.14,0,0,1-5.2,12.3,18.19,18.19,0,0,1-12.6,5.1h0A17.76,17.76,0,0,1,5.2,29.7,17.14,17.14,0,0,1,0,17.4H0A17.14,17.14,0,0,1,5.2,5.1,18.19,18.19,0,0,1,17.8,0h0A17.76,17.76,0,0,1,30.4,5.1a17.14,17.14,0,0,1,5.2,12.3Zm-.4,0h0a16.54,16.54,0,0,0-5.1-12A17.38,17.38,0,0,0,17.8.4h0a17.56,17.56,0,0,0-12.3,5,16.94,16.94,0,0,0-5.1,12h0a16.54,16.54,0,0,0,5.1,12,17.38,17.38,0,0,0,12.3,5h0a17.56,17.56,0,0,0,12.3-5,17.12,17.12,0,0,0,5.1-12Z"/><polygon class="cls-2" points="4.7 23.9 3.8 23.4 2.9 23.9 3.2 23 2.4 22.3 3.4 22.3 3.7 21.2 4.2 22.3 5.1 22.4 4.4 22.9 4.7 23.9"/><polygon class="cls-2" points="7.5 27.4 6.6 27.2 6.1 28.3 5.7 27.2 4.8 27.1 5.7 26.5 5.5 25.5 6.4 26.3 7.3 25.7 6.9 26.6 7.5 27.4"/><polygon class="cls-2" points="32.3 23.4 31.5 22.6 30.3 23.2 30.8 22.1 30 21.2 31.2 21.3 31.8 20.3 32 21.4 33.2 21.6 32.2 22.3 32.3 23.4"/><polygon class="cls-2" points="29.8 27.8 29 26.8 27.9 27.1 28.5 26.2 27.9 25.3 29 25.6 29.7 24.7 29.9 25.9 31 26 29.7 26.6 29.8 27.8"/><path class="cls-4" d="M14.9,32.4l-.5-.3c-.1-.1-.2,0-.3.1s0,.2.1.3l.5.3c.1.1.2,0,.3-.1A.37.37,0,0,0,14.9,32.4Z"/><path class="cls-4" d="M25.7,28.7c.4-.4.1-.6.1-.6a13.75,13.75,0,0,1-11,2C13.3,30.1,10,28,10,28c-.6.3.5.9.5.9.3.1.2.7.2.7-.7.5-.9-.1-.9-.1,0-.2-.1-.1-.1-.1a.74.74,0,0,0,.3,1,5.7,5.7,0,0,0,1.3-.1c.9-.4.7.8.7.8-.3.5.2.6.2.6s.6-1.3.6-1.3c.1-.6.7-.3.7-.3.5.2,1.8.5,1.8.5.7,0,.5.3.5.3a16.15,16.15,0,0,1-2.2,0c-.5.4.1.6.1.6a3.16,3.16,0,0,1,1.9.7.78.78,0,0,0,.6.3,6.53,6.53,0,0,0,.2-1.1c0-.8.5-.7.5-.7a8.76,8.76,0,0,0,2.2.1c.6-.2.2.2.2.2l-1.3.3c-.8.2-.6.3-.6.3-.1.5.5.4.5.4a1.92,1.92,0,0,1,2.1.4c.1.3.5-.1.5-.1a5.28,5.28,0,0,1-.1-1.2h.5c.8-.1.3.3.3.3a.29.29,0,0,0-.3.3c.2.4.8-.1.8-.1.6-.8-1.2-1-1.2-1l1.1-.3a.56.56,0,0,1,.6,0l.4,1.2a.37.37,0,0,0,.6.3l-.4-1.1c-.2-.8,0-.8,0-.8l1.7-.7c.8-.6.8-.2.8-.2L24,30c-.8.6-.1.9-.1.9a3,3,0,0,1,2.8-.7C26.7,30.1,25.7,28.7,25.7,28.7ZM12.4,30.3a.7.7,0,0,1-.4-.2c0-.4-1-.4-1-.4-.1-.4,0-.4,0-.4.4-.3,1.5.6,1.5.6ZM15.9,32a1,1,0,0,1-.7-.4s-.1-.4.5-.1C15.6,31.4,16.2,31.5,15.9,32Zm3.7,0-.2-.1c-.6,0,0-.4,0-.4C19.8,31.4,19.6,32,19.6,32Zm5.8-2s-.5.1-.1-.3c0,0,.1-.2.4-.1C25.7,29.6,25.9,30,25.4,30Z"/><path class="cls-4" d="M25.7,31s.3-.5-.6-.2c0,0-.7.5.1.5,0,0,.3-.3.5-.3Z"/><path class="cls-4" d="M3.3,13.4a.39.39,0,0,1-.4-.4c-.2-.1-.4.5-.4.5.4.1.1.4.1.4-.4.3-.5,1.5-.5,1.5.2,1.4.9,1,.9,1,.4-.1.1-1,.1-1,.2-1.5.4.1.4.1.1.6.5.1.5.1a4.78,4.78,0,0,0-.5-1.3c-.3-.5-.7.3-.7.3.1.9-.2.6-.2.6A1.1,1.1,0,0,1,3,13.8c.4-.3,1.3.1,1.3.1.5.1.3-.3.3-.3Z"/><path class="cls-4" d="M4.8,10.3a.49.49,0,0,1-.5-.6c-.3-.2-.5.6-.5.6.4.2,0,.4,0,.4a1.42,1.42,0,0,0-.7.8c-.3,1.7,1,1.5,1,1.5a1,1,0,0,0,.4-1.3c-.1-.4-.5.1-.5.1.3.8-.2.9-.2.9-.8-.6.1-1.7.1-1.7.4-.6,1.4.1,1.4.1.4.2.4-.3.4-.3Z"/><path class="cls-4" d="M19.6,1.5A1.8,1.8,0,0,0,17.5.8c-1.1.1-.5.5-.5.5a6.92,6.92,0,0,1,1.6-.2c.9.2.3.6.3.6a15.68,15.68,0,0,0-3.2.1A19.38,19.38,0,0,0,9.3,4.1a18.33,18.33,0,0,0-3,2.5l.2.4c-.1.2-.6.3-.6.3-.8.2-.8,1.3-.8,1.3-.2.7.4.3.4.3.3-.5.4-.1.4-.1.1.3.5,0,.5,0s.2-.8.2-.8c0-1.2.4-.7.4-.7.6.3.4.7.4.7-.5,0-.6.8-.6.8a1.05,1.05,0,0,1-.4.9c-.6,0-.5.2-.5.2A1.08,1.08,0,0,0,7.3,9a.71.71,0,0,1,.3-.8C8,8.2,8,8,8,8c.3,0-.6-.9-.6-.9-.9-.6-.4-.8-.4-.8a4.68,4.68,0,0,0,.6-.5c.4-.6.4,0,.4,0,.1.5.9.4.9.4.3,0,.5-.6.5-.6-.1-.3.2-.2.2-.2.1.6-.6,1-.6,1-.4.5-1.4,0-1.4,0v.2a1.59,1.59,0,0,0,1.8,0c.6-.1.8-1.2.8-1.2-.2-.4-1-.3-1-.3s-.5.8-.5.8c-.5-.5.5-1.3.5-1.3,0,.2.8.1.8.1.6-.4.4,0,.4,0s.2.6.2.6c.2.4.4.2.4.2-.2-.2.1-1.3.1-1.3L10.7,4l-.6.4c-.8.1-.4-.2-.4-.2a4.89,4.89,0,0,1,1.1-.7c.6-.5.8.6.8.6a3.73,3.73,0,0,0,.6.8l.2-.2L12,3.9c-.6-1.1,0-.9,0-.9a6,6,0,0,1,1.4-.5c.5-.1-.1.4-.1.4,0,.5.4.4.4.4.1-.3.7-.5.7-.5,1-.1.1.7.1.7a1.51,1.51,0,0,1-1.9-.1c-.3-.3-.4,0-.4,0,.1.3,1.3.8,1.3.8A3.09,3.09,0,0,0,14.8,4c1.1-1,0-1.5,0-1.5-.9-.2,0-.3,0-.3a13,13,0,0,1,2.9-.3c.2.8-.3.6-.3.6-.3-.4-1.2-.1-1.2-.1-.8.4,0,.5,0,.5a.65.65,0,0,1,.5-.3c.9-.2.2.3.2.3-.3.4.6.1.6.1,0-.3.5-.3.5-.3.5,0,.2.8.2.8-.2-.2-1.5.1-1.5.1-.6-.7-.5,0-.5,0a1,1,0,0,0,1.1.4c.7-.5.9-.1.9-.1a.35.35,0,0,0,.4.1l.1-.8c.1-.3-.5-.8-.5-.8,0-.7.6-.5.6-.5.6-.3.3,1.3.3,1.3-.1.7.3.6.3.6a8.32,8.32,0,0,0,.2-1.3c-.2-.5.3-.4.3-.4V1.8C19.8,1.9,19.6,1.5,19.6,1.5ZM5.9,8.2s-.6.2-.2-.5c0,0,0-.4.6-.3A.74.74,0,0,1,5.9,8.2Z"/><path class="cls-4" d="M24.8,3.4s.3-.2-.9-.7a21.93,21.93,0,0,0-2.8-.8s-.6.2.3.5a4.29,4.29,0,0,1,1.5.5h-2s-.5.5.2.6c0,0,1.2,0,1.4.9,0,0,.4.6.6-.3A9.74,9.74,0,0,1,23.6,3s.8,0,.2.9l-.5.7s.1.4.4.3a3.53,3.53,0,0,0,.5-1.2C24.3,3.8,24.4,3.5,24.8,3.4Zm-2.3.5c-.7-.4-.3-.5-.3-.5h.5C22.8,3.6,22.5,3.9,22.5,3.9Z"/><path class="cls-4" d="M24.3,5.1a13.07,13.07,0,0,1,1.2,1.1c.1-.2-.6-1.2-.6-1.2C24.5,4.5,24.3,5.1,24.3,5.1Z"/><path class="cls-4" d="M26.5,4.5c.2-.9-1.2-.8-1.2-.8-.9.4-.4,1-.4,1C26.1,5.4,26.5,4.5,26.5,4.5Zm-.6-.1s-.8.3-.9-.2a.59.59,0,0,1,.7-.2C25.8,4,26.5,4.2,25.9,4.4Z"/><path class="cls-4" d="M33.5,15.5c-.2.1-.5-.2-.5-.2.2,0,.3-.3.3-.3a1.49,1.49,0,0,0,0-.7c-.2,0-.4-.4-.4-.4a2.26,2.26,0,0,0,.2-.7,12,12,0,0,0-1.3-3.4c-.1-.8-2.4-3.3-2.4-3.3-.2-.3-2.2-2-2.2-2-.6.1.5.8.5.8.3,0,1.4,1.3,1.4,1.3.2.6-.3.4-.3.4.2-.7-.9-.7-.9-.7-.2-.9-.8-.9-.8-.9-1.3-.3-.9.8-.9.8.5.7,1,.6,1,.6V6.4c-.3,0-.7-.6-.7-.6a.74.74,0,0,1,.8.1c.5,0,.4.8.4.8l.3.1c1-.1.3.7.3.7-.8.5-.1.7-.1.7l.7-.6c.7-1,.9-.1.9-.1,0,.2-.9.7-.9.7-.5.4-.3.8-.3.8l.8-.6c.5-.6.8-.4.8-.4.7.6.2.6.2.6a1.21,1.21,0,0,0-1,.3c-.6.7.3,1.3.3,1.3.2,0,.2-.3.2-.3-.3,0-.4-.5-.4-.5.4-.8,1.5-.1,1.5-.1.7.2.2.6.2.6a5.58,5.58,0,0,0-.8.5c-.1.5.6.8.6.8.7.3.6.6.6.6-.9,0-.9.3-.9.3a1.36,1.36,0,0,1,.7,0c0,.1.5.2.5.2l.2-.5-.9-.9c-.6-.3-.2-.5-.2-.5.4-.5.6-.1.6-.1a27.73,27.73,0,0,1,1,2.6c.1,1.3-.6.4-.6.4-.1-.5-.3-.4-.3-.4-.3.1,0,.8,0,.8.3,0,.3.4.3.4-.3.2,0,1,0,1l.4-.2c-.3-.7,0-.8,0-.8.4-.2.5.5.5.5.2,1-1.2,1-1.2,1-.6.1-.1.3-.1.3a7.08,7.08,0,0,0,1.5-.1c.3.6.5.4.5.4A.94.94,0,0,0,33.5,15.5Z"/><path class="cls-5" d="M13.5,9.4v.2c.1,0,.1.1.2.1v.1h.1l.1.1H14v.2h.1v.1h.1c.1.1.1.1.2.1v-.1c.1,0,.1,0,.1.1h.1a.1.1,0,0,0,.1.1h0v-.1h0c-.1-.1,0,0-.1,0h-.1c0-.1-.1-.1-.1-.2h0V10h.3c.1,0,.1.1.2.1v.1h0v.2h0v.1h0v.1c0,.1.1.1.1.2h.1c.1.1,0,.1.1.1s.2,0,.3,0h0V11h0a.1.1,0,0,1,.1-.1h0v-.1h0v-.1c-.1,0-.1-.1-.1-.2s0-.1.1-.1h.1c0,.1,0,.1.1.2s.1.1.2.1v.2h0V11h.1l.2.1h0v.1c-.1,0-.1.1-.1.2h0v.1h0v.2h-.1v.1h0v.1h0v.3h0v.2h0v.3h0c.1,0,.1-.1.2,0h0a.37.37,0,0,1,.3.1h1.8c.1,0,.3.1.4.1h0c.1,0,.2-.1.3,0h1.8c.2.1.5.1.5.3.1,0,.1,0,.1.1h.1c.1.1,0,.1.1.1v.2h-.3c-.1,0-.2-.1-.4,0v.3h0c0,.1-.1.3,0,.4h0v.1c0,.1.1.1.1.2v.1H21c-.1,0,0-.1-.1-.1h0v.3h-.4V15h-.1v.2h-.1v.3h-.1v-.3h0a.31.31,0,0,0-.2.1h0v-.1h0v.3l-.1.1h-.1c0-.1,0-.1-.1-.1h-.1v.1c0,.1,0,.1-.1.2s-.2-.1-.3-.1h0c-.2,0-.1.3-.3.4h-.3c-.1.1,0,.3,0,.4h0c0,.1.1.3.1.4V17h0v.1h0v.1h0v.1h.1v.1h0c0,.2.1.5.1.7a.1.1,0,0,1,.1.1V18h0c-.1-.1,0-.3,0-.4h.1a.1.1,0,0,0,.1.1v.4h0v.1h.1v.1h0v.1h0v.1h.3l.1-.1v-.1h0c0-.1.1-.1.1-.2s0-.1-.1-.1h0v-.1h0v-.1h0v-.3H20l.2-.2v-.6h.1v.2h.1l.2-.2h0l.1.1h0v-.1h.1v.1h0v.1h0V17h0v.1h0v.3h0v.1h0v.2h0v.2h0v.2h0v.3h0v.1c0,.1,0,.1.1.2h0v.1h0V19h0v.2h0v.1h0v.2h0v.1h0v.3h0V20h0v.1h0v.1h0v.4h0v2h0v.1h0v.1h0V23c0,.1,0,.1-.1.1l-.1-.1v-.1h0v-.1h-.3c0-.1,0-.3-.2-.3l-.1.1h0c-.1.1-.1,0-.1.1s0,.2,0,.4h0a2.27,2.27,0,0,0,.1.4h0v.1h0v.3h0V24h0v.1h0a.37.37,0,0,0,.1.3H20c0-.1-.1-.2-.1-.3h0V24h0v-.1h0v-.1h-.1a.37.37,0,0,0-.1-.3.1.1,0,0,1-.1-.1.1.1,0,0,0-.1-.1h0v-.1h0v-.3h-.1v-.3a.9.9,0,0,0-.1-.5l-.1-.1h0v-.7h0v-.1h0v-.1h0v-.6H19v-.2h-.1c-.1-.1-.2-.1-.2-.2h0c0-.1-.1,0-.1-.1h0v.1h-.3a.1.1,0,0,1-.1-.1h0s-.1.1,0,.1.1.1.1.2,0,0-.1.1-.3-.1-.4-.1h-.2c0-.1-.1-.1-.1-.2h-.1l-.1-.1h0v-.1h0v-.1h0c0-.1,0-.1-.1-.1h-.1v.1h-.2v.1h-.1V20a.1.1,0,0,0,.1.1h0c0,.1-.1.1-.1.2l.1.1H17v.4h0V21h0v.1h0v.1h0v.1l-.1.1v.3h-.1v-.1h0c0,.1-.1.1-.1.2h-.1v-.1h0v-.1h0c-.1.1,0,.1,0,.3s-.1.3-.5.3V22h-.2c.1-.1.1-.1.1-.3h-.3v-.1h0v-.1h0v-.2h0c-.1,0-.2.1-.2.3h.1c0,.1.1.1.1.2s0,.1.1.2h0c0,.1-.1,0-.1,0h-.1v.1h-.2a1,1,0,0,0-.1-.3h0v.1h0V22h0v.2H15v-.1a.1.1,0,0,1-.1-.1H15c0-.1.1-.1.1-.2H15v-.1h0v-.2h0v-.1h0v.2h0v.1h0v.1h-.1v.1c0,.2.1.4-.1.4v-.1c0-.1.1-.2,0-.3h-.1v-.3h0v-.1h0c0,.1-.1.1-.1.2v.4h0v.3h-.1v-.2h0v-.1a.1.1,0,0,1-.1-.1c0,.2-.1.3-.1.5h0a.1.1,0,0,1-.1-.1V22h0v-.5h0v-.2h0v-.1h0v-.1h0v-.6c0-.1-.1-.1-.1-.2h0c.1-.1.1-.1.1-.2V20l-.1-.1h0c-.1-.1-.1-.1-.1-.3h.1v-.2h.1c-.1,0-.1-.1-.2-.1a.1.1,0,0,1-.1.1c-.1,0-.4-.1-.4-.2v-.1h.1V19c-.1,0-.1-.1,0-.2h0v-.1h0v-.1l-.1-.1h-.2c-.1,0-.2-.3-.2-.4a.1.1,0,0,0,.1-.1c0-.1-.1-.1-.1-.2h0a.76.76,0,0,0,.4-.1v-.2h0v-.2c-.1,0-.1-.1-.1-.2h.1c0-.1,0-.2-.1-.2l-.1-.1h-.6c.5-1.3.4-1.4.3-1.4h-.4l-.1-.1h0v-.1h0v-.3h0c.1-.2.3-.1.3-.4-.1-.1,0-.2.1-.3,0,.1,0,.2.1.2h0c0-.1.1-.1.1-.2h0c.1,0,.1,0,.2-.1V14h0c0-.1-.1-.2-.1-.3s.3,0,.5,0H14c.1,0,.2.1.4,0v-.2h.1v-.1h-.2a.1.1,0,0,0-.1-.1h-.1v-.1h.1V13s0-.1-.1,0H14l-.1.1h-.3l-.1-.1h-.1v-.1h0a.1.1,0,0,0-.1-.1c0-.1,0-.1-.1-.1h-.4v-.2c-.1-.1,0-.2,0-.3s.1,0,.1-.1V12l.1-.1v-.1h0c.1-.1.1,0,.2,0s.1-.1.1-.2v-.1h0v-.1c0-.1.2,0,.4,0h.1v-.1h-.1v-.2c-.1,0-.2-.1-.2,0h-.1v-.2h0v-.1h0C13.3,9.5,13.4,9.4,13.5,9.4Z"/></svg>